<svg xmlns="http://www.w3.org/2000/svg" width="46" height="46" fill="none"><circle cx="23" cy="23" r="22.25" fill="#fff" stroke="#675DA9" stroke-width="1.5"/><path fill="#675DA9" d="M31.79 14.178c-.554-.51-2.796-2.14-7.794-2.162 0 0-5.891-.357-8.763 2.278-1.6 1.6-2.162 3.935-2.22 6.838-.058 2.899-.134 8.335 5.105 9.809h.004l-.004 2.246s-.031.911.567 1.095c.724.223 1.152-.47 1.845-1.215.38-.411.902-1.01 1.3-1.47 3.582.3 6.337-.388 6.65-.491.724-.237 4.82-.76 5.485-6.195.688-5.592-.335-9.134-2.175-10.733Zm.607 10.34c-.563 4.538-3.881 4.824-4.493 5.02-.26.085-2.68.688-5.726.487 0 0-2.27 2.738-2.975 3.448-.111.112-.241.156-.326.134-.12-.031-.156-.174-.152-.384 0-.304.018-3.738.018-3.738-.004 0-.004 0 0 0-4.435-1.229-4.176-5.856-4.127-8.277.05-2.42.505-4.408 1.858-5.744 2.425-2.197 7.432-1.871 7.432-1.871 4.226.018 6.249 1.29 6.718 1.715 1.559 1.34 2.354 4.534 1.773 9.21Z"/><path fill="#675DA9" d="M26.055 21.293a.283.283 0 0 1-.282-.268c-.049-.96-.5-1.43-1.42-1.479a.284.284 0 0 1 .031-.567c1.215.067 1.894.764 1.957 2.014a.278.278 0 0 1-.268.295c-.01.005-.014.005-.018.005Z"/><path fill="#675DA9" d="M27.502 21.776h-.005a.284.284 0 0 1-.276-.29c.022-.965-.255-1.747-.845-2.39-.585-.643-1.393-.991-2.46-1.067a.281.281 0 0 1-.26-.304.281.281 0 0 1 .304-.26c1.206.09 2.157.51 2.836 1.252.684.745 1.014 1.679.992 2.782a.286.286 0 0 1-.286.277Z"/><path fill="#675DA9" d="M28.985 22.356a.28.28 0 0 1-.282-.282c-.013-1.728-.509-3.046-1.518-4.033-.996-.973-2.26-1.47-3.748-1.483a.284.284 0 0 1 0-.567c1.64.014 3.033.563 4.136 1.644 1.108 1.08 1.675 2.572 1.693 4.43a.28.28 0 0 1-.281.29c.004 0 .004 0 0 0ZM24.42 24.79s.397.037.612-.227l.415-.523c.201-.259.688-.424 1.162-.16.263.147.741.442 1.036.66.317.233.96.769.965.773.308.26.38.639.17 1.046v.008c-.215.38-.505.737-.867 1.068-.005 0-.005.004-.01.004-.298.25-.593.393-.88.425-.035.009-.075.009-.129.009-.125 0-.25-.018-.375-.059l-.009-.013c-.446-.125-1.188-.438-2.42-1.12a14.374 14.374 0 0 1-2.037-1.345c-.3-.237-.603-.5-.916-.813l-.031-.032a9.222 9.222 0 0 1-.031-.03l-.032-.032a11.225 11.225 0 0 1-.844-.947 14.13 14.13 0 0 1-1.344-2.037c-.683-1.237-.996-1.978-1.121-2.42l-.014-.01a1.216 1.216 0 0 1-.058-.375c0-.053 0-.093.01-.13.035-.29.178-.58.424-.879 0-.004.004-.004.004-.009.33-.366.688-.652 1.067-.866h.01c.401-.21.781-.139 1.045.17 0 0 .54.647.772.964.22.3.514.773.661 1.036.264.474.099.96-.16 1.162l-.523.415c-.264.214-.228.612-.228.612s.773 2.939 3.676 3.676Z"/></svg>