<svg xmlns="http://www.w3.org/2000/svg" width="52" height="52" fill="none"><path fill="#fff" d="M0 0h52v52H0z"/><path fill="#41B7E9" d="M35.226 29.355h13.42v4.193h-13.42v-4.193ZM3.355 15.097h13.42v4.193H3.354v-4.193ZM13.42 30.193h15.096v4.194H13.42v-4.194ZM42.774 21.807c-5.087 0-9.226-4.14-9.226-9.226 0-5.087 4.14-9.226 9.226-9.226 5.087 0 9.226 4.139 9.226 9.226 0 5.087-4.14 9.226-9.226 9.226Z"/><path fill="#1F2428" d="M25.161 3.355h5.032v1.677h-5.032V3.355ZM21.806 3.355h1.678v1.677h-1.678V3.355ZM16.774 38.58a1.68 1.68 0 0 0-1.677 1.678v1.677a1.68 1.68 0 0 0 1.677 1.678h.492c.448 0 .869-.175 1.186-.492l2.024-2.024-2.024-2.025a1.666 1.666 0 0 0-1.186-.491h-.492Zm.492 3.355h-.492v-1.677h.492l.838.839-.838.838ZM25.161 38.58a1.68 1.68 0 0 0-1.677 1.678v1.677a1.68 1.68 0 0 0 1.677 1.678h1.678a1.68 1.68 0 0 0 1.677-1.678v-1.677a1.68 1.68 0 0 0-1.677-1.677H25.16Zm0 3.355v-1.677h1.678v1.677h-1.678ZM35.226 43.613a1.68 1.68 0 0 0 1.677-1.678v-1.677a1.68 1.68 0 0 0-1.677-1.677h-.492c-.448 0-.869.174-1.186.491l-2.024 2.025 2.024 2.024c.317.317.738.492 1.186.492h.492Zm-.492-3.355h.492v1.677h-.492l-.838-.838.838-.839ZM42.774 18.452a3.358 3.358 0 0 0 3.355-3.355v-1.678h-6.71v1.678a3.358 3.358 0 0 0 3.355 3.355Zm1.678-3.355a1.68 1.68 0 0 1-1.678 1.677 1.68 1.68 0 0 1-1.677-1.677h3.355ZM46.129 10.903a.84.84 0 0 1 .839.839h1.677a2.52 2.52 0 0 0-2.516-2.516 2.52 2.52 0 0 0-2.516 2.516h1.677a.84.84 0 0 1 .839-.839ZM40.258 11.742h1.677a2.52 2.52 0 0 0-2.516-2.516 2.52 2.52 0 0 0-2.516 2.516h1.678a.84.84 0 0 1 1.677 0ZM46.968 31.871h1.677v1.677h-1.677v-1.677ZM35.226 31.871H45.29v1.677H35.226v-1.677ZM35.226 28.516h13.42v1.678h-13.42v-1.678Z"/><path fill="#1F2428" d="M49.484 25.161h-5.648l-1.9-1.086v-2.311a9.077 9.077 0 0 1-1.678-.316v1.668l-1.794-1.024a2.166 2.166 0 0 0-3.238 1.879v1.19h-.839a2.52 2.52 0 0 0-2.516 2.516v6.71a2.52 2.52 0 0 0 2.516 2.516h5.871v5.871a2.52 2.52 0 0 1-2.516 2.516H14.258a2.52 2.52 0 0 1-2.516-2.516V25.53l1.794 1.024a2.166 2.166 0 0 0 3.238-1.879v-1.19h.839a2.52 2.52 0 0 0 2.516-2.516v-6.71a2.52 2.52 0 0 0-2.516-2.516h-5.871V8.387h22.825a9.23 9.23 0 0 1 1.096-1.677H11.742V4.194a2.52 2.52 0 0 1 2.516-2.517h23.484c1.227 0 2.248.884 2.468 2.048a9.118 9.118 0 0 1 1.645-.323A4.196 4.196 0 0 0 37.742 0H14.258a4.198 4.198 0 0 0-4.193 4.194v7.548H2.516A2.52 2.52 0 0 0 0 14.258v6.71a2.52 2.52 0 0 0 2.516 2.516h5.648l1.9 1.086v23.236A4.198 4.198 0 0 0 14.259 52h23.484a4.198 4.198 0 0 0 4.194-4.194V36.903h7.548A2.52 2.52 0 0 0 52 34.387v-6.71a2.52 2.52 0 0 0-2.516-2.516ZM8.61 21.806H2.516a.84.84 0 0 1-.839-.838v-6.71a.84.84 0 0 1 .84-.839h15.096a.84.84 0 0 1 .839.84v6.709a.84.84 0 0 1-.84.838h-2.515v2.869c0 .353-.423.596-.728.422l-5.759-3.29Zm31.648 26a2.52 2.52 0 0 1-2.516 2.517H14.258a2.52 2.52 0 0 1-2.516-2.517v-1.699a4.15 4.15 0 0 0 2.516.86h23.484a4.15 4.15 0 0 0 2.516-.86v1.7Zm10.065-13.419a.84.84 0 0 1-.84.839H34.388a.84.84 0 0 1-.839-.839v-6.71a.84.84 0 0 1 .84-.838h2.515V23.97c0-.353.422-.596.728-.422l5.759 3.29h6.094a.84.84 0 0 1 .839.84v6.71Z"/><path fill="#1F2428" d="M13.42 30.193H25.16v1.678H13.42v-1.678ZM26.839 30.193h1.677v1.678H26.84v-1.678ZM13.42 33.548h15.096v1.678H13.42v-1.678ZM3.355 15.097h1.677v1.677H3.355v-1.677ZM6.71 15.097h10.064v1.677H6.71v-1.677ZM3.355 18.452h13.42v1.677H3.354v-1.677Z"/></svg>