<svg xmlns="http://www.w3.org/2000/svg" width="52" height="52" fill="none"><path fill="#fff" d="M0 0h52v52H0z"/><path fill="#41B7E9" d="M12.58 13.42a2.52 2.52 0 0 1-2.515-2.517 2.52 2.52 0 0 1 2.516-2.516 2.52 2.52 0 0 1 2.516 2.516 2.52 2.52 0 0 1-2.516 2.516ZM46.129 35.226a2.52 2.52 0 0 1-2.516-2.516 2.52 2.52 0 0 1 2.516-2.516 2.52 2.52 0 0 1 2.516 2.516 2.52 2.52 0 0 1-2.516 2.516ZM35.226 16.774c-3.7 0-6.71-3.01-6.71-6.71s3.01-6.71 6.71-6.71 6.71 3.01 6.71 6.71-3.01 6.71-6.71 6.71ZM31.032 52a5.878 5.878 0 0 1-5.87-5.871 5.878 5.878 0 0 1 5.87-5.87 5.878 5.878 0 0 1 5.871 5.87A5.878 5.878 0 0 1 31.033 52Zm0-7.548a1.68 1.68 0 0 0-1.677 1.677 1.68 1.68 0 0 0 1.677 1.677 1.68 1.68 0 0 0 1.678-1.677 1.68 1.68 0 0 0-1.678-1.677ZM10.903 52a5.878 5.878 0 0 1-5.87-5.871 5.878 5.878 0 0 1 5.87-5.87 5.878 5.878 0 0 1 5.871 5.87A5.878 5.878 0 0 1 10.904 52Zm0-7.548a1.68 1.68 0 0 0-1.677 1.677 1.68 1.68 0 0 0 1.677 1.677 1.68 1.68 0 0 0 1.678-1.677 1.68 1.68 0 0 0-1.678-1.677Z"/><path fill="#1F2428" d="M16.707 46.968a5.82 5.82 0 0 1-.507 1.677h9.536a5.817 5.817 0 0 1-.508-1.677h-8.52Z"/><path fill="#1F2428" d="M46.93 26.9c.013-.3.038-.6.038-.9 0-3.823-1.044-7.54-3.003-10.794a10.104 10.104 0 0 0 1.325-4.977v-.164C45.29 4.515 40.776 0 35.226 0c-3.722 0-6.972 2.036-8.713 5.049a21.209 21.209 0 0 0-9.5 2.015 5.855 5.855 0 0 0-4.432-2.032 5.878 5.878 0 0 0-5.871 5.871c0 1.263.417 2.514 1.174 3.522l.347.463A20.84 20.84 0 0 0 5.063 25.16H3.355a1.68 1.68 0 0 0-1.678 1.678v16.774A1.68 1.68 0 0 0 0 45.29v1.678a1.68 1.68 0 0 0 1.677 1.677h3.93a5.819 5.819 0 0 1-.508-1.677H1.677V45.29H5.1a5.82 5.82 0 0 1 .508-1.677H3.355V26.839h6.71v6.389l4.193-2.097 4.194 2.097v-6.39h6.71v16.775H16.2a5.82 5.82 0 0 1 .507 1.677h8.521a5.816 5.816 0 0 1 .493-1.639 5.884 5.884 0 0 1 1.118-1.623V31.87h7.916c.384 0 .72.262.813.635l.26 1.042h-3.957a1.68 1.68 0 0 0-1.677 1.678v1.677a1.68 1.68 0 0 0 1.677 1.678h5.216l1.258 5.032h-2.016c.249.522.422 1.085.507 1.677h1.745v1.678h-1.745a5.817 5.817 0 0 1-.507 1.677h2.252a1.68 1.68 0 0 0 1.677-1.677v-2.31c0-.205-.025-.41-.075-.61l-.536-2.148a20.97 20.97 0 0 0 3.328-3.612l3.154 4.207 4.697-6.263A5.905 5.905 0 0 0 52 32.71c0-2.964-2.21-5.417-5.07-5.81ZM35.227 1.677c4.624 0 8.387 3.763 8.387 8.388v.163c0 1.87-.637 3.711-1.792 5.182l-6.595 8.394-6.595-8.394a8.42 8.42 0 0 1-1.792-5.182v-.163c0-4.625 3.762-8.388 8.387-8.388ZM12.58 6.71a4.198 4.198 0 0 1 4.193 4.193c0 .902-.297 1.796-.839 2.515l-3.354 4.474-3.355-4.473a4.213 4.213 0 0 1-.839-2.516 4.198 4.198 0 0 1 4.194-4.193Zm4.193 23.804-2.516-1.258-2.516 1.258v-3.675h5.032v3.675Zm15.097 6.39v-1.678h4.377l.42 1.677H31.87Zm7.318 3.165-1.993-7.97a2.514 2.514 0 0 0-2.441-1.905h-7.916v-3.355a1.68 1.68 0 0 0-1.678-1.678H6.74a19.168 19.168 0 0 1 2.572-8.83l3.269 4.357 4.696-6.262a5.904 5.904 0 0 0 1.175-3.523c0-.863-.193-1.68-.529-2.42a19.036 19.036 0 0 1 7.822-1.766 10.02 10.02 0 0 0-.584 3.348v.163c0 2.245.764 4.454 2.15 6.218l7.915 10.072 7.69-9.788A19.24 19.24 0 0 1 45.29 26c0 .303-.023.607-.037.912-2.822.425-4.995 2.859-4.995 5.798 0 1.263.418 2.513 1.174 3.521l.484.646a19.326 19.326 0 0 1-2.727 3.192Zm10.295-4.844-3.355 4.474-3.355-4.474a4.213 4.213 0 0 1-.839-2.515 4.198 4.198 0 0 1 4.194-4.194 4.198 4.198 0 0 1 4.194 4.194c0 .901-.298 1.795-.84 2.515Z"/><path fill="#1F2428" d="M20.129 21.806h1.677v1.678H20.13v-1.678ZM23.484 21.806h1.677v1.678h-1.677v-1.678ZM26.839 21.806h1.677v1.678H26.84v-1.678ZM31.032 43.613a2.52 2.52 0 0 0-2.516 2.516 2.52 2.52 0 0 0 2.516 2.516 2.52 2.52 0 0 0 2.516-2.516 2.52 2.52 0 0 0-2.516-2.516Zm0 3.355a.84.84 0 1 1 .002-1.68.84.84 0 0 1-.002 1.68ZM10.903 43.613a2.52 2.52 0 0 0-2.516 2.516 2.52 2.52 0 0 0 2.516 2.516 2.52 2.52 0 0 0 2.516-2.516 2.52 2.52 0 0 0-2.516-2.516Zm0 3.355a.84.84 0 1 1 .002-1.68.84.84 0 0 1-.002 1.68Z"/></svg>