<svg xmlns="http://www.w3.org/2000/svg" width="52" height="52" fill="none"><path fill="#fff" d="M0 0h52v52H0z"/><path fill="#41B7E9" d="M51.161 5.87v5.033H10.903V5.871c0-.923.755-1.678 1.678-1.678h3.354V6.71c0 .462.378.84.84.84h1.677a.841.841 0 0 0 .838-.84V4.193h3.355V6.71c0 .462.378.84.839.84h1.677a.841.841 0 0 0 .839-.84V4.193h10.065V6.71c0 .462.377.84.838.84h1.678a.841.841 0 0 0 .838-.84V4.193h3.355V6.71c0 .462.378.84.839.84h1.677a.841.841 0 0 0 .839-.84V4.193h3.355c.922 0 1.677.755 1.677 1.678Z"/><path fill="#1F2428" d="M49.484 3.355h-2.516v-.839A2.52 2.52 0 0 0 44.452 0a2.52 2.52 0 0 0-2.517 2.516v.839h-1.677v-.839A2.52 2.52 0 0 0 37.742 0a2.52 2.52 0 0 0-2.516 2.516v.839h-8.387v-.839A2.52 2.52 0 0 0 24.323 0a2.52 2.52 0 0 0-2.517 2.516v.839H20.13v-.839A2.52 2.52 0 0 0 17.613 0a2.52 2.52 0 0 0-2.516 2.516v.839H12.58a2.52 2.52 0 0 0-2.516 2.516v15.935H6.71v5.033h1.677v2.658h1.678V26.84h3.354v2.658h1.678V26.84h1.677v-5.032h-5.032V5.87a.84.84 0 0 1 .839-.839h2.516V6.71a1.68 1.68 0 0 0 1.677 1.677h1.678a1.68 1.68 0 0 0 1.677-1.677V5.032h1.677V6.71a1.68 1.68 0 0 0 1.678 1.677h1.677A1.68 1.68 0 0 0 26.84 6.71V5.032h8.387V6.71a1.68 1.68 0 0 0 1.677 1.677h1.678a1.68 1.68 0 0 0 1.677-1.677V5.032h1.677V6.71a1.68 1.68 0 0 0 1.678 1.677h1.677a1.68 1.68 0 0 0 1.678-1.677V5.032h2.516a.84.84 0 0 1 .839.839v30.194a.84.84 0 0 1-.84.838h-27.13v1.678h27.13A2.52 2.52 0 0 0 52 36.064V5.872a2.52 2.52 0 0 0-2.516-2.516ZM15.097 23.484v1.677h-6.71v-1.677h6.71ZM16.774 6.71V2.516a.84.84 0 0 1 1.678 0V6.71h-1.678Zm6.71 0V2.516a.84.84 0 0 1 1.677 0l.001 4.194h-1.678Zm13.42 0V2.516a.84.84 0 0 1 1.677 0V6.71h-1.678Zm6.709 0V2.516a.84.84 0 0 1 1.677 0l.001 4.194h-1.678Z"/><path fill="#1F2428" d="M46.968 35.226h-26v-1.678H45.29V15.097H16.774v4.978h-1.677V13.42h31.87v21.807Z"/><path fill="#1F2428" d="M31.032 23.484a1.68 1.68 0 0 1-1.677-1.677 1.68 1.68 0 0 1 1.677-1.678 1.68 1.68 0 0 1 1.678 1.678h1.677c0-1.56-1.073-2.861-2.516-3.236v-1.797h-1.677v1.797a3.351 3.351 0 0 0-2.517 3.236 3.358 3.358 0 0 0 3.355 3.355 1.68 1.68 0 0 1 1.678 1.677 1.68 1.68 0 0 1-1.678 1.677 1.68 1.68 0 0 1-1.677-1.677h-1.678c0 1.56 1.074 2.86 2.517 3.236v1.796h1.677v-1.796a3.351 3.351 0 0 0 2.516-3.236 3.358 3.358 0 0 0-3.355-3.355Z"/><path fill="#41B7E9" d="M11.742 28.516C5.257 28.516 0 33.773 0 40.258 0 46.743 5.257 52 11.742 52c6.485 0 11.742-5.257 11.742-11.742 0-6.485-5.257-11.742-11.742-11.742Zm0 19.29a7.548 7.548 0 0 1-7.548-7.548c0-4.17 3.379-7.548 7.548-7.548 4.17 0 7.548 3.379 7.548 7.548 0 4.17-3.379 7.548-7.548 7.548Z"/><path fill="#1F2428" d="M11.742 48.645c-4.625 0-8.387-3.762-8.387-8.387s3.762-8.387 8.387-8.387 8.387 3.762 8.387 8.387-3.762 8.387-8.387 8.387Zm0-15.097c-3.7 0-6.71 3.01-6.71 6.71s3.01 6.71 6.71 6.71 6.71-3.01 6.71-6.71-3.01-6.71-6.71-6.71Z"/><path fill="#1F2428" d="m10.658 42.528-1.186-1.186 1.431-1.431v-4.685h1.678v5.38l-1.923 1.922Z"/></svg>