<svg xmlns="http://www.w3.org/2000/svg" width="52" height="52" fill="none"><path fill="#fff" d="M0 0h52v52H0z"/><path fill="#41B7E9" d="M33.548 43.613h-8.387v-8.387h8.387v8.387ZM46.968 15.097H20.129V6.71h26.839v8.387Z"/><path fill="#1F2428" d="M28.516 43.613h1.678v-3.355h3.354v-1.677h-3.355v-3.355h-1.677v3.355h-3.355v1.677h3.355v3.355ZM43.613 36.903h5.032v1.678h-5.032v-1.678Z"/><path fill="#1F2428" d="M52 5.032V0H15.097v5.032h1.677v11.742H5.871a2.52 2.52 0 0 0-2.516 2.516v.839H0v11.742h5.032v15.097H2.516A2.52 2.52 0 0 0 0 49.484V52h52v-2.516a2.52 2.52 0 0 0-2.516-2.516h-.839v-3.355h.839A2.52 2.52 0 0 0 52 41.097v-3.355a5.847 5.847 0 0 0-1.677-4.1V5.032H52ZM16.774 1.677h33.549v1.678H16.774V1.677ZM5.032 19.29a.84.84 0 0 1 .839-.838h30.194a.84.84 0 0 1 .838.838v2.517H16.774v-1.678H5.032v-.839Zm31.033 10.904h-19.29v-6.71h20.128v5.87a.84.84 0 0 1-.838.84ZM11.353 26l3.744-3.209v6.418L11.353 26Zm-1.599-.839H7.02l-3.914-3.355h10.563l-3.915 3.355ZM5.421 26l-3.744 3.209V22.79L5.421 26Zm1.598.839h2.735l3.915 3.355H3.105l3.913-3.355Zm-.31 5.032h28.516v15.097H21.807V35.226h1.678v-1.678H8.387v1.678h1.678v11.742H6.71V31.87Zm8.388 3.355v11.742h-3.355V35.226h3.355Zm1.677 0h3.355v11.742h-3.355V35.226Zm33.549 14.258v.839H1.677v-.84a.84.84 0 0 1 .84-.838h46.967a.84.84 0 0 1 .839.839Zm-3.355-2.516H45.29v-3.355h1.678v3.355Zm3.355-5.871a.84.84 0 0 1-.84.838h-6.709a.84.84 0 0 1-.839-.838v-3.355a4.198 4.198 0 0 1 4.194-4.194 4.198 4.198 0 0 1 4.194 4.194v3.355Zm-1.678-8.651a5.831 5.831 0 0 0-2.516-.575 5.878 5.878 0 0 0-5.87 5.87v3.356a2.52 2.52 0 0 0 2.515 2.516h.839v3.355h-6.71V31.717a2.513 2.513 0 0 0 1.678-2.362V19.29a2.52 2.52 0 0 0-2.517-2.516H18.453V5.032h30.193v27.414Z"/><path fill="#1F2428" d="M28.516 6.71h1.678v8.387h-1.678V6.71ZM36.903 6.71h1.678v8.387h-1.678V6.71Z"/><path fill="#41B7E9" d="M46.968 28.516h-6.71V18.452h6.71v10.064Z"/></svg>