<svg xmlns="http://www.w3.org/2000/svg" width="52" height="52" fill="none"><path fill="#fff" d="M0 0h52v52H0z"/><path fill="#41B7E9" d="M26 41.097h1.677v-5.032h1.678v-5.033h6.71v5.033h1.677v1.904A16.716 16.716 0 0 0 42.774 26c0-9.264-7.51-16.774-16.774-16.774-2.61 0-5.072.614-7.275 1.677H26v2.516l-5.9 2.213-.002-.005a1.677 1.677 0 0 1-1.646 1.986c-.887 0-1.605-.69-1.666-1.56a4.435 4.435 0 0 1-3.367 1.56c-.604 0-1.18-.135-1.713-.358A16.672 16.672 0 0 0 9.226 26c0 9.264 7.51 16.774 16.774 16.774.072 0 .142-.01.214-.01A6.698 6.698 0 0 1 26 41.096Z"/><path fill="#1F2428" d="M43.619 48.645c-.76 0-1.027.13-1.687.507-.864.494-2.046 1.17-4.183 1.17s-3.32-.675-4.186-1.17c-.66-.377-.927-.507-1.689-.507-.761 0-1.029.13-1.69.508-.864.494-2.048 1.17-4.184 1.17V52c2.581 0 4.106-.87 5.016-1.39.503-.287.503-.287.858-.287.356 0 .356 0 .857.286.911.52 2.436 1.391 5.018 1.391 2.583 0 4.106-.871 5.016-1.391.5-.286.5-.286.854-.286.352 0 .352 0 .853.286.91.52 2.433 1.391 5.012 1.391v-1.677c-2.134 0-3.316-.676-4.181-1.171-.66-.377-.925-.507-1.684-.507ZM10.903 11.742h5.032v1.677h-5.032v-1.677Z"/><path fill="#1F2428" d="M52 37.742v-.839h-1.677v-6.71h-1.678V26.84h-1.677v3.355H45.29v-1.678h-1.677v1.678h-1.58l-.838 6.71h-1.356L38.58 38.58v-3.355h-1.678v-5.032h-8.387v5.032H26.84v5.032H25.16v.839c0 2.169.918 4.167 2.489 5.584-.428.172-.928.287-1.65.287v1.677c1.692 0 2.574-.504 3.353-.95.684-.39 1.276-.727 2.521-.727 1.246 0 1.837.337 2.521.728.779.445 1.662.95 3.354.95 1.69 0 2.573-.506 3.351-.95.684-.391 1.274-.728 2.519-.728 1.243 0 1.834.337 2.517.728.777.444 1.659.95 3.348.95v-1.678c-.898 0-1.455-.177-1.953-.423A10.894 10.894 0 0 0 52 37.742Zm-8.485-5.871h5.13v5.032h-5.76l.63-5.032Zm-13.322 0h5.033v3.355h-5.032V31.87Zm-1.677 5.032h8.387v3.355h-8.387v-3.355Zm11.752 9.337c-.684.39-1.275.728-2.52.728s-1.836-.338-2.52-.728c-.78-.446-1.662-.95-3.354-.95-1.188 0-1.974.25-2.609.553a5.82 5.82 0 0 1-2.368-3.908h11.264l2.516-3.354h9.608a9.211 9.211 0 0 1-4.485 7.08c-.56-.213-1.244-.37-2.181-.37-1.69 0-2.573.503-3.35.949Z"/><path fill="#1F2428" d="M10.074 35.226h9.19c.61 3.28 1.54 6.084 2.712 7.997l1.43-.876c-1.04-1.699-1.875-4.187-2.443-7.121h4.198v-1.678h-4.486a50.61 50.61 0 0 1-.536-6.71h11.713c-.008.55-.012 1.104-.036 1.637l1.675.077c.026-.558.03-1.138.039-1.713h12.599V26c0-11.099-9.03-20.129-20.129-20.129-1.478 0-2.952.161-4.384.479l.364 1.637A18.591 18.591 0 0 1 26 7.548c1.895 0 3.934 3.531 5.041 9.226H20.813c.064-.178.105-.366.127-.56L26.84 14v-3.936H18.95a3.038 3.038 0 0 0-2.707-1.678h-.388l-.116-1.162 4.389-.627V2.516h-4.86L15.017 0h-3.196l-.252 2.516H6.71v4.082l4.39.627-.116 1.162h-.388a3.039 3.039 0 0 0-2.707 1.678H0V14l5.899 2.212a2.512 2.512 0 0 0 2.488 2.239c.802 0 1.522-.388 1.984-.988.874.621 1.929.988 3.048.988a5.27 5.27 0 0 0 3.05-.988c.46.6 1.18.988 1.983.988H31.33c.305 2.025.489 4.283.525 6.71H20.152c.026-1.686.111-3.348.288-4.94l-1.667-.186a54.012 54.012 0 0 0-.299 5.125H7.58c.073-1.63.345-3.234.838-4.777l-1.597-.51A20.084 20.084 0 0 0 5.871 26c0 10.378 8.09 19.188 18.42 20.058l.14-1.672c-6.143-.517-11.408-4.109-14.357-9.16ZM25.16 12.838l-4.604 1.726a2.512 2.512 0 0 0-1.724-1.107l.34-1.188c.049-.172.077-.35.096-.528h5.892v1.097Zm-6.71-8.644v.95l-2.878.412-.136-1.362h3.015Zm-10.064.95v-.95h3.015l-.136 1.36-2.879-.41Zm4.953-3.467h.158l.671 6.71h-1.501l.672-6.71ZM1.677 11.742H7.57c.019.178.046.355.096.527l.34 1.189c-.72.11-1.34.52-1.723 1.107l-4.606-1.727v-1.096Zm6.71 5.032a.835.835 0 1 1 .138-1.66c.163.41.367.795.621 1.144a.83.83 0 0 1-.759.516Zm1.563-2.617-.672-2.349a1.37 1.37 0 0 1 1.317-1.744h5.65a1.37 1.37 0 0 1 1.315 1.744l-.67 2.348a3.623 3.623 0 0 1-3.47 2.618 3.624 3.624 0 0 1-3.47-2.617Zm7.743 2.101c.254-.348.457-.733.621-1.144a.837.837 0 1 1 .138 1.66.83.83 0 0 1-.76-.516Zm1.29 17.29H9.207a18.223 18.223 0 0 1-1.618-6.71H18.46c.036 2.331.215 4.6.522 6.71ZM29.428 7.876c5.354 1.011 9.9 4.336 12.545 8.898h-9.231c-.686-3.72-1.799-6.94-3.314-8.898Zm3.588 10.576h9.811a18.312 18.312 0 0 1 1.605 6.71h-10.89a53.05 53.05 0 0 0-.526-6.71Z"/><path fill="#1F2428" d="m47.067 20.346.52 1.944 3.46-5.932-1.45-.845-1.488 2.553a23.585 23.585 0 0 0-8.492-11.2l-.973 1.366a21.87 21.87 0 0 1 8.423 12.114ZM38.178 5.916a23.49 23.49 0 0 0-1.74-.958l-.747 1.502a21.87 21.87 0 0 1 1.616.89l.871-1.434ZM34.698 4.18a23.444 23.444 0 0 0-1.74-.616l-.497 1.603c.542.168 1.086.36 1.615.571l.622-1.558ZM4.933 31.654l-.52-1.944-3.46 5.932 1.45.845 1.488-2.553a23.585 23.585 0 0 0 8.492 11.2l.973-1.366a21.87 21.87 0 0 1-8.423-12.114ZM13.822 46.084c.559.34 1.144.662 1.74.958l.747-1.502a21.914 21.914 0 0 1-1.616-.89l-.871 1.434ZM17.302 47.82c.57.227 1.156.435 1.74.615l.497-1.602a21.586 21.586 0 0 1-1.615-.572l-.622 1.559Z"/></svg>