<svg xmlns="http://www.w3.org/2000/svg" width="52" height="52" fill="none"><path fill="#fff" d="M0 0h52v52H0z"/><path fill="#41B7E9" d="M20.968 52C9.406 52 0 42.594 0 31.032c0-11.561 9.406-20.968 20.968-20.968 11.561 0 20.967 9.407 20.967 20.968C41.935 42.594 32.53 52 20.968 52Zm0-37.742c-9.25 0-16.774 7.525-16.774 16.774 0 9.25 7.525 16.774 16.774 16.774s16.774-7.524 16.774-16.774-7.525-16.774-16.774-16.774Z"/><path fill="#1F2428" d="M50.323 0H33.548a1.68 1.68 0 0 0-1.677 1.677V4.13c-5.65-1.442-11.864-.812-17.15 1.83l.77 1.491c5.03-2.514 11.006-3.064 16.38-1.58v7.26c.578.352 1.138.733 1.677 1.139V1.677h5.033v3.355a1.68 1.68 0 0 0 1.677 1.678h3.355a1.68 1.68 0 0 0 1.677-1.678V1.677h5.033v16.775H37.73c.406.539.787 1.1 1.14 1.677h8.401a22.788 22.788 0 0 1 1.374 7.813c0 7.633-2.68 15.045-7.548 20.918v-5.247h-1.678V52h7.549v-1.677h-4.902l.103-.122a34.5 34.5 0 0 0 8.154-22.26c0-2.68-.427-5.302-1.27-7.812h1.27A1.68 1.68 0 0 0 52 18.452V1.677A1.68 1.68 0 0 0 50.323 0Zm-6.71 5.032h-3.355V1.677h3.355v3.355Z"/><path fill="#1F2428" d="M20.968 13.42c-9.712 0-17.613 7.9-17.613 17.612 0 9.712 7.901 17.613 17.613 17.613 9.711 0 17.613-7.901 17.613-17.613 0-9.711-7.902-17.613-17.613-17.613ZM36.86 31.87a15.85 15.85 0 0 1-4.066 9.803l-2.339-2.34-1.186 1.187 2.34 2.339a15.844 15.844 0 0 1-9.803 4.065v-3.312h-1.678v3.312a15.849 15.849 0 0 1-9.803-4.065l2.34-2.34-1.187-1.185-2.339 2.339a15.845 15.845 0 0 1-4.065-9.803h3.312v-1.677H5.075A15.85 15.85 0 0 1 9.14 20.39l2.34 2.339 1.185-1.186-2.339-2.34a15.844 15.844 0 0 1 9.803-4.064v3.312h1.677V15.14a15.85 15.85 0 0 1 9.803 4.065l-2.339 2.339 1.186 1.186 2.34-2.34a15.844 15.844 0 0 1 4.065 9.804h-3.313v1.677h3.313Z"/><path fill="#1F2428" d="M25.161 18.452h1.678v1.677H25.16v-1.677ZM25.161 41.935h1.678v1.678H25.16v-1.678ZM31.871 25.161h1.677v1.678h-1.677V25.16ZM31.871 35.226h1.677v1.677h-1.677v-1.677ZM15.097 18.452h1.677v1.677h-1.677v-1.677ZM15.097 41.935h1.677v1.678h-1.677v-1.678ZM8.387 25.161h1.678v1.678H8.387V25.16ZM8.387 35.226h1.678v1.677H8.387v-1.677Z"/><path fill="#1F2428" d="m28.673 18.803-6.003 8.405a4.155 4.155 0 0 0-1.702-.37c-.853 0-1.646.26-2.31.7l-4.646-4.647-1.186 1.186 4.647 4.646a4.167 4.167 0 0 0-.699 2.31 4.194 4.194 0 0 0 2.485 3.82l-.787 3.546 1.638.364.787-3.544c.024 0 .046.007.07.007a4.198 4.198 0 0 0 4.194-4.194c0-1.1-.435-2.096-1.131-2.845l6.007-8.41-1.364-.974ZM20.968 33.55a2.52 2.52 0 0 1-2.516-2.517 2.52 2.52 0 0 1 2.516-2.516 2.52 2.52 0 0 1 2.516 2.516 2.52 2.52 0 0 1-2.516 2.517ZM40.258 15.097h1.677v1.677h-1.677v-1.677ZM43.613 15.097h1.677v1.677h-1.677v-1.677ZM46.968 15.097h1.677v1.677h-1.677v-1.677ZM5.032 14.258a2.52 2.52 0 0 0-2.516-2.516A2.52 2.52 0 0 0 0 14.258a2.52 2.52 0 0 0 2.516 2.516 2.52 2.52 0 0 0 2.516-2.516Zm-2.516.839a.839.839 0 1 1 0-1.678.839.839 0 0 1 0 1.678ZM7.548 11.742a2.52 2.52 0 0 0 2.517-2.516 2.52 2.52 0 0 0-2.517-2.517 2.52 2.52 0 0 0-2.516 2.517 2.52 2.52 0 0 0 2.516 2.516Zm0-3.355a.839.839 0 1 1 0 1.678.839.839 0 0 1 0-1.678ZM11.742 6.71h1.677v1.677h-1.677V6.709Z"/></svg>