<svg xmlns="http://www.w3.org/2000/svg" width="52" height="52" fill="none"><path fill="#fff" d="M0 0h52v52H0z"/><path fill="#41B7E9" d="M46.968 48.646H38.58a1.679 1.679 0 0 1-1.678-1.676v-3.354c0-.925.753-1.677 1.678-1.677h8.387c.925 0 1.677.752 1.677 1.677v3.354c0 .924-.752 1.676-1.677 1.676Z"/><path fill="#1F2428" d="M33.548 29.362v-6.707a2.512 2.512 0 0 0-1.677-2.361v-7.7a2.512 2.512 0 0 0-1.677-2.361V6.015c0-2.26-1.144-4.388-2.985-5.55-.98-.62-1.438-.62-2.42 0-1.84 1.162-2.983 3.29-2.983 5.55v4.218a2.512 2.512 0 0 0-1.677 2.36v7.7a2.512 2.512 0 0 0-1.677 2.362v6.707c0 1.092.703 2.014 1.677 2.361v7.7c0 1.092.704 2.014 1.677 2.361v4.218c0 2.261 1.144 4.388 2.985 5.551.49.31.863.447 1.209.447.346 0 .719-.138 1.21-.447 1.84-1.163 2.984-3.29 2.984-5.551v-4.218a2.512 2.512 0 0 0 1.677-2.36v-7.7a2.512 2.512 0 0 0 1.677-2.362Zm-12.58.839a.833.833 0 0 1-.78-.55l7.837-7.835h3.007c.361 0 .662.231.78.55l-7.837 7.835h-3.007Zm4.718-28.318c.157-.1.258-.149.314-.172.056.023.158.073.314.172 1.358.857 2.202 2.441 2.202 4.132v4.063h-5.032V6.015c0-1.69.844-3.275 2.201-4.132Zm-3.04 9.872h6.709c.463 0 .839.376.839.839v7.546h-8.387v-7.546c0-.463.375-.839.838-.839Zm-1.678 10.061h4.685l-5.524 5.522v-4.683c0-.463.376-.839.839-.839Zm5.347 28.319a2.284 2.284 0 0 1-.315.171 2.2 2.2 0 0 1-.314-.171c-1.358-.857-2.202-2.442-2.202-4.133v-4.063h5.032v4.063c0 1.691-.844 3.276-2.201 4.133Zm3.04-9.873h-6.71a.839.839 0 0 1-.838-.839v-7.545h8.387v7.545a.839.839 0 0 1-.84.839ZM31.032 30.2h-4.685l5.524-5.522v4.683a.839.839 0 0 1-.839.839ZM50.322 30.355v-2.67a2.512 2.512 0 0 0-1.677-2.36V10.916a2.512 2.512 0 0 0-1.677-2.361V2.532A2.519 2.519 0 0 0 44.452.017h-3.355a2.519 2.519 0 0 0-2.516 2.515v6.024a2.512 2.512 0 0 0-1.678 2.36v14.408a2.512 2.512 0 0 0-1.677 2.361v2.67a2.512 2.512 0 0 0-1.678 2.361v16.769c0 2.333 7.062 2.515 9.226 2.515C44.938 52 52 51.818 52 49.485V32.716a2.512 2.512 0 0 0-1.678-2.361ZM41.097 1.694h3.355c.462 0 .838.376.838.838v5.87h-5.032v-5.87c0-.462.376-.838.839-.838Zm-1.678 8.384h6.71c.463 0 .839.376.839.839V25.17H38.58V10.917c0-.463.375-.839.838-.839Zm-1.677 16.769h10.064c.463 0 .84.375.84.838v2.516H36.902v-2.516c0-.462.376-.838.839-.838Zm-1.677 5.03h13.419c.463 0 .838.376.838.839v2.515H35.227v-2.515c0-.463.376-.838.839-.838Zm14.258 5.031v1.677H35.225v-1.677h15.096Zm-7.549 13.415c-4.33 0-6.965-.648-7.548-1.034v-9.027h15.096v9.027c-.583.386-3.218 1.034-7.548 1.034ZM16.774 30.355v-2.67a2.512 2.512 0 0 0-1.677-2.36v-9.378a2.512 2.512 0 0 0-1.678-2.36V2.531A2.519 2.519 0 0 0 10.903.017H7.548a2.519 2.519 0 0 0-2.516 2.515v11.054a2.512 2.512 0 0 0-1.677 2.361v9.377a2.512 2.512 0 0 0-1.678 2.361v2.67A2.512 2.512 0 0 0 0 32.716v16.769C0 51.818 7.062 52 9.226 52c2.164 0 9.226-.182 9.226-2.515V32.716a2.512 2.512 0 0 0-1.678-2.361ZM7.548 1.694h3.355c.463 0 .839.376.839.838v10.9H6.71v-10.9c0-.462.375-.838.838-.838ZM5.871 15.109h6.71c.463 0 .838.376.838.838v9.223H5.032v-9.223c0-.462.376-.838.839-.838ZM4.194 26.847h10.064c.463 0 .839.375.839.838v2.516H3.355v-2.516c0-.462.376-.838.839-.838Zm-1.678 5.03h13.42c.462 0 .838.376.838.839v2.515H1.677v-2.515c0-.463.376-.838.84-.838Zm14.258 5.031v1.677H1.677v-1.677h15.097ZM9.226 50.323c-4.33 0-6.965-.648-7.549-1.034v-9.027h15.097v9.027c-.584.386-3.218 1.034-7.548 1.034Z"/><path fill="#41B7E9" d="M13.42 48.646H5.031a1.679 1.679 0 0 1-1.677-1.676v-3.354c0-.925.752-1.677 1.677-1.677h8.387c.925 0 1.678.752 1.678 1.677v3.354c0 .924-.752 1.676-1.678 1.676Z"/></svg>