<svg xmlns="http://www.w3.org/2000/svg" width="52" height="52" fill="none"><path fill="#fff" d="M0 0h52v52H0z"/><path fill="#41B7E9" d="M49.01 4.24 45.331 0l-.634.64a7.665 7.665 0 0 1-5.48 2.29h-8.814c-5.665 0-10.274 4.649-10.274 10.364a10.4 10.4 0 0 0 .776 3.95l.216.528.085-.001a3.35 3.35 0 0 1 3.117-2.15H26v-1.293c0-1.282.718-2.454 1.854-3.027l1.5-.757c0 .935.752 1.692 1.678 1.692h11.742c1.853 0 3.355 1.515 3.355 3.384h1.677c1.334 0 2.476.791 3.016 1.928h.001l.215-.511c.638-1.516.962-3.12.962-4.768 0-2.955-1.063-5.806-2.99-8.029Z"/><path fill="#1F2428" d="M47.806 14.774h-.923c-.39-1.928-2.083-3.384-4.109-3.384H31.032a.843.843 0 0 1-.838-.846c0-.466.375-.846.838-.846h.839V8.006h-.839c-1.2 0-2.205.85-2.456 1.985l-1.097.553a4.211 4.211 0 0 0-2.318 3.784v.446h-.838c-2.313 0-4.194 1.898-4.194 4.23 0 2.333 1.881 4.23 4.194 4.23h.838a9.312 9.312 0 0 0 5.944 8.688 6.466 6.466 0 0 0-2.898 4.84l-.244 2.717-1.903-.548a7.64 7.64 0 0 0 1.617-4.698c0-4.199-3.386-7.614-7.548-7.614a7.473 7.473 0 0 0-4.735 1.692h-.364l-.636-7.69c-.114-1.381-1.278-2.462-2.652-2.462s-2.538 1.08-2.652 2.462l-.636 7.69h-.067c-1.85 0-3.355 1.518-3.355 3.384 0 .702.213 1.354.576 1.894a3.376 3.376 0 0 0-2.253 3.182c0 .702.213 1.354.576 1.895a3.375 3.375 0 0 0-2.254 3.182c0 .619.178 1.192.467 1.692h-.467C.752 43.54 0 44.299 0 45.232c0 1.866 1.505 3.384 3.355 3.384h10.064v1.692c0 .933.753 1.692 1.678 1.692h18.451c4.163 0 7.549-3.415 7.549-7.614v-8.711a4.83 4.83 0 0 0-1.357-3.36c4.129-.924 7.228-4.641 7.228-9.08h.838c2.313 0 4.194-1.898 4.194-4.23 0-2.333-1.881-4.23-4.194-4.23Zm-23.483 6.769c-1.388 0-2.517-1.14-2.517-2.538 0-1.4 1.13-2.538 2.517-2.538h.838v5.076h-.838Zm5.556 15.374a4.783 4.783 0 0 1 2.333-3.71 4.742 4.742 0 0 0-.396.819l-2.143 5.945-.067-.02.273-3.034Zm4.856 5.627-.814.914a5.304 5.304 0 0 1-3.951 1.775 5.3 5.3 0 0 1-2.377-.566L20.8 41.24a2.744 2.744 0 0 1-1.51-2.464c0-1.106.891-2.005 1.987-2.005.914 0 1.706.625 1.928 1.519l.422 1.699 5.912 1.704.698 2.114 1.59-.535-.746-2.259.148-.408a6.712 6.712 0 0 0 3.506 1.939Zm1.368.996 3.316-3.719v3.719h-3.316Zm-17.49-7.287c-.62-.472-1-1.21-1-2.02 0-1.4 1.129-2.538 2.516-2.538s2.516 1.139 2.516 2.538c0 .364-.083.712-.226 1.034a3.633 3.633 0 0 0-1.142-.188 3.631 3.631 0 0 0-2.664 1.174Zm1.516-7.942c3.237 0 5.871 2.657 5.871 5.922a5.95 5.95 0 0 1-1.192 3.576 3.677 3.677 0 0 0-.955-1.651c.301-.594.47-1.253.47-1.925 0-2.332-1.882-4.23-4.194-4.23-2.312 0-4.194 1.898-4.194 4.23 0 1.424.708 2.718 1.847 3.494a3.677 3.677 0 0 0-.17 1.049c0 .289.038.57.09.846a5.961 5.961 0 0 1-3.444-5.389c0-3.265 2.634-5.922 5.871-5.922Zm-9.368-7.55a.994.994 0 0 1 .98-.91c.51 0 .94.4.982.91l.624 7.55h-3.21l.624-7.55Zm-2.374 9.242h5.47a7.606 7.606 0 0 0-1.227 3.384H8.387a1.686 1.686 0 0 1-1.677-1.692c0-.933.752-1.692 1.677-1.692ZM6.71 35.08h5.923a7.628 7.628 0 0 0 1.24 3.385H6.71a1.686 1.686 0 0 1-1.678-1.693c0-.933.753-1.692 1.678-1.692ZM3.355 46.924a1.686 1.686 0 0 1-1.678-1.692H13.42v1.692H3.355Zm10.064-3.384H5.032a1.686 1.686 0 0 1-1.677-1.692c0-.934.752-1.692 1.677-1.692H15.4a7.461 7.461 0 0 0 3.31 1.549c.369.424.818.786 1.34 1.05l1.558.785h-3.622c-.582-1.006-1.652-1.692-2.888-1.692-.926 0-1.679.758-1.679 1.692Zm2.516 6.768h-.838V43.54c.925 0 1.677.759 1.677 1.692v5.076h-.839Zm17.613 0H18.452v-5.076h6.51l1.88.947a6.989 6.989 0 0 0 3.127.745c1.67 0 3.274-.612 4.532-1.692h4.851c-.409 2.864-2.852 5.076-5.804 5.076ZM39.42 36.09a3.15 3.15 0 0 1-.797 2.097l-2.511 2.815h-.046a5.03 5.03 0 0 1-4.168-2.25l1.495-4.147a3.117 3.117 0 0 1 2.92-2.063c1.713 0 3.107 1.406 3.107 3.135V36.09Zm5.871-12.855c0 4.199-3.386 7.614-7.548 7.614h-3.355c-4.162 0-7.548-3.415-7.548-7.614v-8.907c0-.968.533-1.838 1.39-2.27l.594-.3a2.515 2.515 0 0 0 2.21 1.324h11.741c1.387 0 2.516 1.14 2.516 2.538v7.615Zm2.517-1.692h-.84v-5.076h.84c1.387 0 2.516 1.138 2.516 2.538 0 1.399-1.13 2.538-2.517 2.538Z"/><path fill="#1F2428" d="M31.871 24.927c0 2.332 1.881 4.23 4.194 4.23 2.312 0 4.193-1.898 4.193-4.23v-.846h-8.387v.846Zm6.566.846a2.523 2.523 0 0 1-2.372 1.692 2.523 2.523 0 0 1-2.373-1.692h4.745ZM33.548 19.005h1.678c0-1.867-1.505-3.385-3.355-3.385s-3.355 1.518-3.355 3.385h1.678c0-.934.752-1.693 1.677-1.693s1.677.76 1.677 1.692ZM40.258 15.62c-1.85 0-3.355 1.518-3.355 3.385h1.678c0-.934.752-1.693 1.677-1.693s1.677.76 1.677 1.692h1.678c0-1.866-1.505-3.384-3.355-3.384Z"/></svg>