<svg xmlns="http://www.w3.org/2000/svg" width="52" height="52" fill="none"><path fill="#fff" d="M0 0h52v52H0z"/><path fill="#41B7E9" d="M33.874 17.18H17.528L15.556 4.355l5.681 1.894L25.701 0l4.465 6.25 5.681-1.894-1.973 12.823Z"/><path fill="#1F2428" d="M31.09 17.18h-2.073l-3.316 4.42-3.316-4.42h-2.073l5.39 7.185 5.388-7.186ZM24.872 47.026h1.658v1.658h-1.658v-1.658ZM29.846 47.026h1.659v1.658h-1.659v-1.658ZM19.898 47.026h1.658v1.658h-1.658v-1.658ZM24.872 10.546h1.658v1.659h-1.658v-1.659ZM21.556 10.546h1.658v1.659h-1.658v-1.659ZM28.188 10.546h1.659v1.659h-1.659v-1.659Z"/><path fill="#1F2428" d="M51.402 12.25a4.91 4.91 0 0 0-1.447-3.494l-.867-.867-14.868 7.043-.346 2.247h-.94l2.341 1.405a2.493 2.493 0 0 1 1.204 2.127c0 .687-.29 1.35-.793 1.816L25.701 31.8l-9.985-9.273a2.486 2.486 0 0 1-.793-1.816c0-.866.462-1.68 1.204-2.127l2.342-1.405h-.94l-.193-1.253-.153-.995L2.313 7.89l-.865.867A4.91 4.91 0 0 0 0 12.25c0 1.81.987 3.472 2.576 4.339l.384.209a4.309 4.309 0 0 0-1.302 3.082 4.332 4.332 0 0 0 2.57 3.955l.562.25A4.234 4.234 0 0 0 3.316 27.3a4.228 4.228 0 0 0 2.672 3.945l9.767 3.907 5.883 8.557h-2.373c-.948 0-1.8.527-2.225 1.375l-1.887 3.775c-.15.3-.23.636-.23.97 0 1.198.974 2.171 2.17 2.171H34.31a2.173 2.173 0 0 0 1.941-3.141l-1.887-3.775a2.475 2.475 0 0 0-2.225-1.375h-2.374l5.884-8.557 9.767-3.908a4.227 4.227 0 0 0 2.671-3.944 4.237 4.237 0 0 0-1.472-3.216l.56-.25a4.331 4.331 0 0 0 2.57-3.954c0-1.175-.478-2.276-1.3-3.082l.382-.21a4.937 4.937 0 0 0 2.576-4.338ZM4.974 27.3c0-.868.432-1.674 1.154-2.155l.42-.28 3.064 1.363.674-1.515-5.385-2.394a2.672 2.672 0 0 1-1.585-2.439c0-.894.445-1.724 1.19-2.22l.015-.01 5.032 2.745.793-1.456-6.976-3.805a3.282 3.282 0 0 1-.75-5.206l.04-.04 13.824 6.548-1.21.727a4.16 4.16 0 0 0-2.009 3.548c0 1.147.482 2.253 1.322 3.032l1.322 1.227-1.061 1.06a5.37 5.37 0 0 0-.756 6.67l-7.49-2.995A2.579 2.579 0 0 1 4.975 27.3Zm10.608 4.675a3.738 3.738 0 0 1-.659-2.123 3.72 3.72 0 0 1 1.097-2.649l1.104-1.104 7.748 7.194v10.416H23.65l-8.068-11.734Zm17.297 13.85 1.887 3.776a.513.513 0 0 1-.458.741H17.095a.513.513 0 0 1-.459-.741l1.887-3.775a.827.827 0 0 1 .742-.459h12.873c.317 0 .6.176.742.459ZM26.53 43.71V33.293l7.748-7.194 1.104 1.104a3.722 3.722 0 0 1 1.097 2.65c0 .76-.228 1.494-.66 2.122l-8.067 11.734H26.53Zm21.503-28.576-6.976 3.805.793 1.456 5.032-2.745.016.01a2.665 2.665 0 0 1 1.189 2.22 2.672 2.672 0 0 1-1.585 2.44l-5.384 2.392.674 1.515 3.065-1.362.418.28a2.587 2.587 0 0 1 1.154 2.155c0 1.065-.639 2.01-1.628 2.405l-7.489 2.995a5.366 5.366 0 0 0-.758-6.668l-1.06-1.06 1.32-1.227a4.15 4.15 0 0 0 1.323-3.033 4.16 4.16 0 0 0-2.009-3.548l-1.21-.727 13.824-6.548.04.04c.62.62.962 1.445.962 2.322a3.28 3.28 0 0 1-1.711 2.883Z"/></svg>