<svg xmlns="http://www.w3.org/2000/svg" width="52" height="52" fill="none"><path fill="#fff" d="M0 0h52v52H0z"/><path fill="#41B7E9" d="m45.671 41.097-1.214-13.36a8.827 8.827 0 0 0-3.618 5.16 3.072 3.072 0 0 1-2.98 2.329H14.142c-1.41 0-2.64-.96-2.982-2.328a8.827 8.827 0 0 0-3.617-5.161L5.923 45.54a2.075 2.075 0 0 0 2.07 2.266H44.007a2.078 2.078 0 0 0 2.07-2.266l-.252-2.766-.153-1.677Z"/><path fill="#1F2428" d="m51.764 42.702-6.63-22.1a4.17 4.17 0 0 0-4.018-2.99h-2.535v-5.031C38.58 5.643 32.937 0 26 0c-6.937 0-12.58 5.643-12.58 12.58v5.033h-2.536A4.168 4.168 0 0 0 6.867 20.6L.236 42.703a5.588 5.588 0 0 0 .217 3.817L2.803 52h46.395l2.35-5.48a5.6 5.6 0 0 0 .216-3.818ZM8.473 21.084a2.502 2.502 0 0 1 2.41-1.794h2.536v5.033h1.678V12.58c0-6.012 4.891-10.904 10.903-10.904 6.012 0 10.903 4.892 10.903 10.904v11.742h1.678V19.29h2.535a2.5 2.5 0 0 1 2.41 1.794l1.592 5.306a9.684 9.684 0 0 0-5.091 6.305 2.232 2.232 0 0 1-2.169 1.692H14.142a2.233 2.233 0 0 1-2.17-1.692 9.683 9.683 0 0 0-5.091-6.306l1.592-5.305ZM50.005 45.86l-1.913 4.463H3.908L1.995 45.86a3.937 3.937 0 0 1-.153-2.676L6.395 28.01c.092.05.177.11.267.163L5.088 45.466c-.047.54.055 1.082.297 1.567a2.901 2.901 0 0 0 2.609 1.612h36.012a2.9 2.9 0 0 0 2.609-1.612 2.93 2.93 0 0 0 .296-1.57l-.251-2.766-1.67.153.25 2.765a1.233 1.233 0 0 1-1.234 1.353H7.994a1.239 1.239 0 0 1-1.234-1.351L8.234 29.4a7.98 7.98 0 0 1 2.112 3.702 3.907 3.907 0 0 0 3.796 2.963h23.716a3.906 3.906 0 0 0 3.795-2.964 7.99 7.99 0 0 1 2.112-3.7l1.07 11.772 1.67-.153-1.167-12.846c.09-.053.175-.113.267-.163l4.552 15.172a3.92 3.92 0 0 1-.151 2.677Z"/><path fill="#1F2428" d="m18.452 19.285 7.443-.047h7.653v5.085h1.678V12.58c0-5.087-4.14-9.226-9.226-9.226-5.087 0-9.226 4.139-9.226 9.226v11.742h1.678v-5.038ZM26 5.032c4.163 0 7.548 3.386 7.548 7.549v4.98H25.89l-7.438.047V12.58c0-4.163 3.385-7.549 7.548-7.549ZM29.355 31.032h-6.71v1.678h6.71v-1.678Z"/></svg>