<svg xmlns="http://www.w3.org/2000/svg" width="46" height="46" fill="none"><circle cx="23" cy="23" r="22.25" fill="#fff" stroke="#41B7E9" stroke-width="1.5"/><path fill="#41B7E9" d="M18.433 32.733a.634.634 0 0 1-.633-.633v-3.167h-1.9c-1.048 0-1.9-.852-1.9-1.9V16.9c0-1.047.852-1.9 1.9-1.9h15.2c1.047 0 1.9.852 1.9 1.9v10.133c0 1.048-.852 1.9-1.9 1.9h-7.694l-4.577 3.662a.632.632 0 0 1-.396.138ZM15.9 16.267a.634.634 0 0 0-.633.633v10.133c0 .35.283.634.633.634h2.533c.35 0 .634.283.634.633v2.483l3.72-2.978a.632.632 0 0 1 .396-.138H31.1c.35 0 .633-.285.633-.634V16.9a.634.634 0 0 0-.633-.633H15.9Z"/><path fill="#41B7E9" d="M28.567 21.333H18.433a.633.633 0 1 1 0-1.267h10.134a.633.633 0 1 1 0 1.267ZM23.5 23.866h-5.067a.633.633 0 1 1 0-1.266H23.5a.633.633 0 1 1 0 1.266Z"/></svg>