<svg xmlns="http://www.w3.org/2000/svg" width="89" height="17" fill="none"><path fill="#FFA009" d="m8.419 0 2.474 5.013 5.533.804-4.004 3.903.945 5.51-4.948-2.602L3.47 15.23l.945-5.51L.412 5.817l5.533-.804L8.419 0ZM26.46 0l2.474 5.013 5.532.804-4.003 3.903.945 5.51-4.949-2.602-4.948 2.602.945-5.51-4.003-3.903 5.532-.804L26.46 0ZM44.5 0l2.474 5.013 5.533.804-4.004 3.903.946 5.51-4.949-2.602-4.949 2.602.945-5.51-4.003-3.903 5.533-.804L44.5 0ZM62.54 0l2.475 5.013 5.532.804-4.003 3.903.945 5.51-4.948-2.602-4.949 2.602.945-5.51-4.003-3.903 5.532-.804L62.541 0ZM80.581 0l2.474 5.013 5.533.804-4.003 3.903.945 5.51-4.949-2.602-4.948 2.602.945-5.51-4.004-3.903 5.533-.804L80.58 0Z"/></svg>