<svg xmlns="http://www.w3.org/2000/svg" width="46" height="46" fill="none"><circle cx="23" cy="23" r="22.25" fill="#fff" stroke="#0DC143" stroke-width="1.5"/><path fill="#0DC143" d="M30.967 15.065C29.022 13.078 26.332 12 23.586 12c-5.837 0-10.529 4.71-10.472 10.443 0 1.816.515 3.576 1.374 5.165L13 33l5.55-1.419c1.545.851 3.262 1.249 4.979 1.249C29.308 32.83 34 28.119 34 22.387c0-2.782-1.087-5.392-3.033-7.322ZM23.586 31.07c-1.545 0-3.09-.397-4.406-1.192l-.343-.17-3.32.852.859-3.236-.229-.34c-2.518-4.03-1.316-9.365 2.804-11.862 4.12-2.498 9.441-1.306 11.96 2.78 2.517 4.087 1.315 9.366-2.805 11.863-1.316.851-2.918 1.305-4.52 1.305Zm5.035-6.3-.63-.284s-.915-.397-1.487-.68c-.057 0-.114-.057-.172-.057a.831.831 0 0 0-.4.113s-.057.057-.858.965a.315.315 0 0 1-.287.17h-.057a.435.435 0 0 1-.229-.113l-.286-.114c-.63-.284-1.201-.624-1.66-1.078-.114-.114-.285-.227-.4-.34-.4-.398-.8-.852-1.087-1.363l-.057-.113c-.057-.057-.057-.114-.114-.227 0-.114 0-.227.057-.284 0 0 .229-.284.4-.454.115-.114.172-.284.286-.398.115-.17.172-.397.115-.567-.057-.284-.744-1.816-.916-2.157-.114-.17-.229-.227-.4-.284h-.63c-.114 0-.229.057-.343.057l-.057.057c-.115.057-.23.17-.344.227-.114.113-.171.227-.286.34a2.88 2.88 0 0 0-.63 1.76c0 .454.115.908.287 1.305l.057.17a9.457 9.457 0 0 0 2.117 2.895l.23.227c.17.17.343.284.457.454a10.253 10.253 0 0 0 4.12 2.157c.172.057.4.057.572.114h.572c.286 0 .63-.114.859-.227.171-.114.286-.114.4-.227l.115-.114c.114-.113.229-.17.343-.284.114-.113.229-.227.286-.34.114-.227.172-.511.229-.795v-.397s-.057-.057-.172-.114Z"/></svg>